<?xml version="1.0" standalone="no"?>
<!DOCTYPE svg PUBLIC "-//W3C//DTD SVG 20010904//EN"
 "http://www.w3.org/TR/2001/REC-SVG-20010904/DTD/svg10.dtd">
<svg version="1.0" xmlns="http://www.w3.org/2000/svg"
 width="800.000000pt" height="600.000000pt" viewBox="0 0 800.000000 600.000000"
 preserveAspectRatio="xMidYMid meet">

<g transform="translate(0.000000,600.000000) scale(0.100000,-0.100000)"
fill="#000000" stroke="none">
<path d="M3300 5050 c-179 -24 -303 -82 -411 -190 -113 -113 -167 -234 -189
-430 -13 -114 -13 -1001 1 -1131 22 -220 105 -375 264 -496 52 -40 94 -60 177
-89 120 -40 223 -46 808 -41 614 4 620 5 769 78 167 83 293 245 338 436 16 71
18 132 18 688 0 594 -1 612 -22 686 -71 251 -227 406 -475 471 -80 21 -103 22
-653 24 -313 1 -595 -1 -625 -6z m1206 -223 c191 -42 310 -165 345 -359 20
-103 20 -1102 1 -1202 -38 -200 -153 -318 -352 -363 -109 -24 -1118 -25 -1226
0 -92 20 -164 57 -226 115 -94 88 -124 179 -140 417 -12 203 -4 930 12 1025
22 131 97 250 192 307 124 74 205 82 838 78 395 -2 498 -5 556 -18z"/>
<path d="M4458 4629 c-102 -53 -93 -211 14 -254 104 -41 207 34 195 143 -6 53
-31 91 -78 114 -44 23 -85 22 -131 -3z"/>
<path d="M3732 4465 c-30 -7 -91 -31 -138 -54 -240 -119 -375 -400 -320 -666
49 -236 241 -431 472 -480 332 -70 653 132 730 461 23 100 15 246 -19 344 -70
197 -245 354 -442 395 -85 18 -211 18 -283 0z m329 -242 c118 -58 198 -169
220 -303 26 -164 -66 -337 -220 -413 -62 -30 -72 -32 -176 -32 -100 0 -115 3
-167 28 -78 38 -149 109 -188 187 -44 87 -53 214 -22 302 27 77 73 141 136
188 83 63 143 81 256 78 85 -3 103 -7 161 -35z"/>
<path d="M3220 2485 c0 -87 3 -105 15 -105 12 0 15 18 15 105 0 87 -3 105 -15
105 -12 0 -15 -18 -15 -105z"/>
<path d="M3620 2555 c0 -16 -6 -25 -15 -25 -8 0 -15 -4 -15 -10 0 -5 7 -10 15
-10 10 0 15 -16 17 -62 3 -66 16 -80 56 -62 14 6 13 8 -8 13 -22 6 -25 13 -28
59 -3 50 -2 52 22 52 15 0 26 5 26 10 0 6 -11 10 -25 10 -20 0 -25 5 -25 25 0
14 -4 25 -10 25 -5 0 -10 -11 -10 -25z"/>
<path d="M3300 2455 c0 -60 3 -75 15 -75 12 0 15 13 15 60 0 55 2 60 24 66 38
9 46 -2 46 -67 0 -46 3 -59 15 -59 12 0 15 14 15 63 0 69 -10 87 -50 87 -14 0
-31 -5 -38 -12 -9 -9 -12 -9 -12 0 0 7 -7 12 -15 12 -12 0 -15 -15 -15 -75z"/>
<path d="M3482 2521 c-24 -15 -10 -55 26 -70 20 -9 32 -22 32 -34 0 -17 -5
-19 -35 -14 -40 7 -58 -9 -20 -19 36 -9 73 3 80 27 8 24 -6 43 -46 59 -36 15
-33 35 7 36 16 0 31 5 34 10 7 12 -61 17 -78 5z"/>
<path d="M3730 2515 c-12 -14 -8 -15 27 -9 32 5 41 3 47 -11 9 -23 -1 -35 -30
-35 -36 0 -67 -35 -54 -60 12 -23 59 -27 78 -8 9 9 12 9 12 0 0 -7 5 -12 10
-12 14 0 13 123 -2 138 -17 17 -73 15 -88 -3z m80 -78 c0 -20 -22 -37 -47 -37
-27 0 -31 24 -5 39 24 15 52 13 52 -2z"/>
<path d="M3880 2515 c-8 -9 -9 -25 -5 -42 10 -34 8 -61 -7 -90 -17 -33 5 -53
58 -53 89 0 103 73 15 82 -43 4 -55 28 -14 28 35 0 53 16 53 47 0 13 5 23 10
23 6 0 10 5 10 10 0 16 -106 12 -120 -5z m77 -21 c7 -20 -22 -45 -43 -37 -8 3
-14 16 -14 29 0 19 5 24 25 24 15 0 28 -7 32 -16z m13 -123 c0 -11 -9 -20 -22
-23 -37 -6 -58 2 -58 23 0 16 7 19 40 19 33 0 40 -4 40 -19z"/>
<path d="M4030 2455 c0 -60 3 -75 15 -75 11 0 15 13 15 53 0 55 12 77 42 77
10 0 18 5 18 10 0 13 -33 13 -47 -1 -8 -8 -13 -8 -17 0 -17 27 -26 5 -26 -64z"/>
<path d="M4173 2523 c-26 -10 -12 -20 25 -19 31 1 37 -2 40 -21 3 -19 -1 -23
-23 -23 -36 0 -65 -17 -65 -39 0 -29 21 -40 73 -38 l47 2 0 53 c0 71 -12 92
-53 91 -18 0 -38 -3 -44 -6z m65 -95 c-4 -31 -58 -40 -58 -9 0 18 14 27 48 30
8 1 12 -8 10 -21z"/>
<path d="M4310 2453 c0 -57 3 -73 15 -73 10 0 15 16 17 63 3 59 4 62 28 62 24
0 25 -3 28 -62 2 -46 7 -63 17 -63 10 0 15 17 17 63 3 59 4 62 28 62 24 0 25
-3 28 -62 2 -47 7 -63 17 -63 18 0 21 100 5 131 -12 21 -59 26 -78 7 -8 -8
-15 -8 -25 0 -7 6 -32 10 -55 9 l-42 -1 0 -73z"/>
</g>
</svg>
